# WaveFront *.obj file (generated by CINEMA 4D)

mtllib ./TriDoor.mtl

v 0.00000000000002 4300 -12300
v 0.00000000000002 4340 -12300
v 0.00000000000002 4351.70556640625 -12298.8466796875
v 0.00000000000002 4362.9609375 -12295.4326171875
v 0.00000000000002 4373.333984375 -12289.8876953125
v 0.00000000000002 4382.42626953125 -12282.4267578125
v 0.00000000000002 4389.88818359375 -12273.333984375
v 0.00000000000002 4395.4326171875 -12262.9609375
v 0.00000000000002 4398.84716796875 -12251.705078125
v 0.00000000000001 4400 -12240
v -0.00000000000001 4400 -11760
v -0.00000000000002 4398.84716796875 -11748.294921875
v -0.00000000000002 4395.4326171875 -11737.0390625
v -0.00000000000002 4389.88818359375 -11726.666015625
v -0.00000000000002 4382.42626953125 -11717.5732421875
v -0.00000000000002 4373.333984375 -11710.1123046875
v -0.00000000000002 4362.9609375 -11704.5673828125
v -0.00000000000002 4351.70556640625 -11701.1533203125
v -0.00000000000002 4340 -11700
v -0.00000000000002 4300 -11700
v -0.00000000000002 4288.29443359375 -11701.1533203125
v -0.00000000000002 4277.0390625 -11704.5673828125
v -0.00000000000002 4266.666015625 -11710.1123046875
v -0.00000000000002 4257.57373046875 -11717.5732421875
v -0.00000000000002 4250.11181640625 -11726.666015625
v -0.00000000000002 4244.5673828125 -11737.0390625
v -0.00000000000002 4241.15283203125 -11748.294921875
v -0.00000000000001 4240 -11760
v 0.00000000000001 4240 -12240
v 0.00000000000002 4241.15283203125 -12251.705078125
v 0.00000000000002 4244.5673828125 -12262.9609375
v 0.00000000000002 4250.11181640625 -12273.333984375
v 0.00000000000002 4257.57373046875 -12282.4267578125
v 0.00000000000002 4266.666015625 -12289.8876953125
v 0.00000000000002 4277.0390625 -12295.4326171875
v 0.00000000000002 4288.29443359375 -12298.8466796875
v -2338.2685546875 250 -12300
v -2372.90966796875 230 -12300
v -2383.046875 224.14729309082031 -12298.8466796875
v -2392.79443359375 218.51950073242188 -12295.4326171875
v -2401.77783203125 213.3328857421875 -12289.8876953125
v -2409.65185546875 208.78678894042969 -12282.4267578125
v -2416.114013671875 205.055908203125 -12273.333984375
v -2420.915771484375 202.28361511230469 -12262.9609375
v -2423.872802734375 200.57644653320312 -12251.705078125
v -2424.87109375 200 -12240
v -2424.87109375 200 -11760
v -2423.872802734375 200.57644653320312 -11748.294921875
v -2420.915771484375 202.28361511230469 -11737.0390625
v -2416.114013671875 205.055908203125 -11726.666015625
v -2409.65185546875 208.78678894042969 -11717.5732421875
v -2401.77783203125 213.3328857421875 -11710.1123046875
v -2392.79443359375 218.51950073242188 -11704.5673828125
v -2383.046875 224.14729309082031 -11701.1533203125
v -2372.90966796875 230 -11700
v -2338.2685546875 250 -11700
v -2328.13134765625 255.85270690917969 -11701.1533203125
v -2318.3837890625 261.48049926757812 -11704.5673828125
v -2309.400390625 266.6671142578125 -11710.1123046875
v -2301.526123046875 271.21319580078125 -11717.5732421875
v -2295.064208984375 274.944091796875 -11726.666015625
v -2290.262451171875 277.71640014648438 -11737.0390625
v -2287.305419921875 279.42355346679688 -11748.294921875
v -2286.30712890625 280 -11760
v -2286.30712890625 280 -12240
v -2287.305419921875 279.42355346679688 -12251.705078125
v -2290.262451171875 277.71640014648438 -12262.9609375
v -2295.064208984375 274.944091796875 -12273.333984375
v -2301.526123046875 271.21319580078125 -12282.4267578125
v -2309.400390625 266.6671142578125 -12289.8876953125
v -2318.3837890625 261.48049926757812 -12295.4326171875
v -2328.13134765625 255.85270690917969 -12298.8466796875
v 2338.2685546875 250 -12300
v 2372.90966796875 230 -12300
v 2383.046875 224.14729309082031 -12298.8466796875
v 2392.79443359375 218.51950073242188 -12295.4326171875
v 2401.77783203125 213.3328857421875 -12289.8876953125
v 2409.65185546875 208.78678894042969 -12282.4267578125
v 2416.114013671875 205.055908203125 -12273.333984375
v 2420.915771484375 202.28361511230469 -12262.9609375
v 2423.872802734375 200.57644653320312 -12251.705078125
v 2424.87109375 200 -12240
v 2424.87109375 200 -11760
v 2423.872802734375 200.57644653320312 -11748.294921875
v 2420.915771484375 202.28361511230469 -11737.0390625
v 2416.114013671875 205.055908203125 -11726.666015625
v 2409.65185546875 208.78678894042969 -11717.5732421875
v 2401.77783203125 213.3328857421875 -11710.1123046875
v 2392.79443359375 218.51950073242188 -11704.5673828125
v 2383.046875 224.14729309082031 -11701.1533203125
v 2372.90966796875 230 -11700
v 2338.2685546875 250 -11700
v 2328.13134765625 255.85270690917969 -11701.1533203125
v 2318.3837890625 261.48049926757812 -11704.5673828125
v 2309.400390625 266.6671142578125 -11710.1123046875
v 2301.526123046875 271.21319580078125 -11717.5732421875
v 2295.064208984375 274.944091796875 -11726.666015625
v 2290.262451171875 277.71640014648438 -11737.0390625
v 2287.305419921875 279.42355346679688 -11748.294921875
v 2286.30712890625 280 -11760
v 2286.30712890625 280 -12240
v 2287.305419921875 279.42355346679688 -12251.705078125
v 2290.262451171875 277.71640014648438 -12262.9609375
v 2295.064208984375 274.944091796875 -12273.333984375
v 2301.526123046875 271.21319580078125 -12282.4267578125
v 2309.400390625 266.6671142578125 -12289.8876953125
v 2318.3837890625 261.48049926757812 -12295.4326171875
v 2328.13134765625 255.85270690917969 -12298.8466796875
# 108 vertices

vn 0 0 -1
vn 0 0.04872027412057 -0.9988124370575
vn -0.04218884184957 -0.02434452436864 -0.99881303310394
vn 0 0.19034935534 -0.98171639442444
vn -0.16484881937504 -0.09515918046236 -0.98171770572662
vn -0.54591459035873 0.3151923418045 -0.77629315853119
vn -0.68963021039963 0.39815926551819 -0.60487961769104
vn -0.77279770374298 0.44616574048996 -0.45135334134102
vn -0.82061713933945 0.47379475831985 -0.31954035162926
vn -0.84774196147919 0.48945087194443 -0.20438058674335
vn -0.86170935630798 0.49751263856888 -0.09969003498554
vn -0.86576223373413 0.49985080957413 -0.02459409832954
vn -0.86576294898987 0.49985119700432 0.02456286735833
vn -0.86170935630798 0.49751263856888 0.09969003498554
vn -0.84774196147919 0.48945087194443 0.20438058674335
vn -0.82060897350311 0.4737900197506 0.31956839561462
vn -0.77278679609299 0.44615945219994 0.45137822628021
vn -0.68962240219116 0.39814156293869 0.60490018129349
vn -0.54591459035873 0.3151923418045 0.77629315853119
vn 0 0.19034935534 0.98171639442444
vn -0.16484881937504 -0.09515918046236 0.98171770572662
vn 0 0.04872027412057 0.9988124370575
vn -0.04218884184957 -0.02434452436864 0.99881303310394
vn 0 -0.04872027412057 0.9988124370575
vn 0.04218884184957 0.02434452436864 0.99881303310394
vn 0 -0.19034935534 0.98171639442444
vn 0.1648184210062 0.09515967220068 0.98172271251678
vn 0.54592001438141 -0.31516417860985 0.77630078792572
vn 0.68962240219116 -0.39814156293869 0.60490018129349
vn 0.77279770374298 -0.44616574048996 0.45135334134102
vn 0.82061713933945 -0.47379475831985 0.31954035162926
vn 0.84774196147919 -0.48945087194443 0.20438058674335
vn 0.86170935630798 -0.49751263856888 0.09969003498554
vn 0.86576223373413 -0.49985080957413 0.02459409832954
vn 0.86576223373413 -0.49985080957413 -0.02459409832954
vn 0.86170935630798 -0.49751263856888 -0.09969003498554
vn 0.84774196147919 -0.48945087194443 -0.20438058674335
vn 0.82061713933945 -0.47379475831985 -0.31954035162926
vn 0.77278679609299 -0.44615945219994 -0.45137822628021
vn 0.68962240219116 -0.39814156293869 -0.60490018129349
vn 0.54592001438141 -0.31516417860985 -0.77630078792572
vn 0 -0.19034935534 -0.98171639442444
vn 0.1648184210062 0.09515967220068 -0.98172271251678
vn 0 -0.09803389757872 -0.99518305063248
vn 0.08490854501724 0.04900132119656 -0.99518311023712
vn 0.04218884184957 -0.02434452436864 -0.99881303310394
vn 0.1648184210062 -0.09515967220068 -0.98172271251678
vn 0 -0.6303608417511 -0.77630227804184
vn 0 -0.79630607366562 -0.60489386320114
vn 0 -0.8923425078392 -0.45135891437531
vn 0 -0.94757437705994 -0.31953525543213
vn 0 -0.97889190912247 -0.20437853038311
vn 0 -0.99501860141754 -0.09968936443329
vn 0 -0.99969750642776 -0.02459399588406
vn 0 -0.99969750642776 0.02459399588406
vn 0 -0.99501860141754 0.09968936443329
vn 0 -0.97889190912247 0.20437853038311
vn 0 -0.94757437705994 0.31953525543213
vn 0 -0.8923425078392 0.45135891437531
vn 0 -0.79630607366562 0.60489386320114
vn 0 -0.6303608417511 0.77630227804184
vn 0.16484881937504 -0.09515918046236 0.98171770572662
vn 0.04218884184957 -0.02434452436864 0.99881303310394
vn -0.04218884184957 0.02434452436864 0.99881303310394
vn -0.16484881937504 0.09515918046236 0.98171770572662
vn 0 0.6303608417511 0.77630227804184
vn 0 0.79630607366562 0.60489386320114
vn 0 0.8923425078392 0.45135891437531
vn 0 0.94757437705994 0.31953525543213
vn 0 0.97889190912247 0.20437853038311
vn 0 0.99501860141754 0.09968936443329
vn 0 0.99969750642776 0.02459399588406
vn 0 0.99969750642776 -0.02459399588406
vn 0 0.99501860141754 -0.09968936443329
vn 0 0.97889190912247 -0.20437853038311
vn 0 0.94757437705994 -0.31953525543213
vn 0 0.8923425078392 -0.45135891437531
vn 0 0.79630607366562 -0.60489386320114
vn 0 0.6303608417511 -0.77630227804184
vn -0.16484881937504 0.09515918046236 -0.98171770572662
vn -0.08490854501724 0.04900132119656 -0.99518311023712
vn 0.54592001438141 0.31516417860985 -0.77630078792572
vn 0.68962240219116 0.39814156293869 -0.60490018129349
vn 0.77278679609299 0.44615945219994 -0.45137822628021
vn 0.82061713933945 0.47379475831985 -0.31954035162926
vn 0.84774196147919 0.48945087194443 -0.20438058674335
vn 0.86170935630798 0.49751263856888 -0.09969003498554
vn 0.86576223373413 0.49985080957413 -0.02459409832954
vn 0.86576223373413 0.49985080957413 0.02459409832954
vn 0.86170935630798 0.49751263856888 0.09969003498554
vn 0.84774196147919 0.48945087194443 0.20438058674335
vn 0.82061713933945 0.47379475831985 0.31954035162926
vn 0.77278679609299 0.44615945219994 0.45137822628021
vn 0.68962240219116 0.39814156293869 0.60490018129349
vn 0.54591459035873 0.3151923418045 0.77629315853119
vn -0.54591459035873 -0.3151923418045 0.77629315853119
vn -0.68962240219116 -0.39814156293869 0.60490018129349
vn -0.77279770374298 -0.44616574048996 0.45135334134102
vn -0.82061713933945 -0.47379475831985 0.31954035162926
vn -0.84774196147919 -0.48945087194443 0.20438058674335
vn -0.86170935630798 -0.49751263856888 0.09969003498554
vn -0.86576223373413 -0.49985080957413 0.02459409832954
vn -0.86576223373413 -0.49985080957413 -0.02459409832954
vn -0.86170935630798 -0.49751263856888 -0.09969003498554
vn -0.84774196147919 -0.48945087194443 -0.20438058674335
vn -0.82061713933945 -0.47379475831985 -0.31954035162926
vn -0.77278679609299 -0.44615945219994 -0.45137822628021
vn -0.68962240219116 -0.39814156293869 -0.60490018129349
vn -0.54591459035873 -0.3151923418045 -0.77629315853119
# 109 normals

vt 0 0 0
vt 0 0.02824091911316 0
vt 0.33333331346512 0.02824091911316 0
vt 0.33333331346512 0 0
vt 0 0.03654515743256 0
vt 0.33333331346512 0.03654515743256 0
vt 0 0.04484951496124 0
vt 0.33333331346512 0.04484951496124 0
vt 0 0.05315375328064 0
vt 0.33333331346512 0.05315375328064 0
vt 0 0.06145799160004 0
vt 0.33333331346512 0.06145799160004 0
vt 0 0.06976234912872 0
vt 0.33333331346512 0.06976234912872 0
vt 0 0.07806658744812 0
vt 0.33333331346512 0.07806658744812 0
vt 0 0.08637082576752 0
vt 0.33333331346512 0.08637082576752 0
vt 0 0.09467506408691 0
vt 0.33333331346512 0.09467506408691 0
vt 0 0.43356585502625 0
vt 0.33333331346512 0.43356585502625 0
vt 0 0.44187009334564 0
vt 0.33333331346512 0.44187009334564 0
vt 0 0.45017433166504 0
vt 0.33333331346512 0.45017433166504 0
vt 0 0.45847868919373 0
vt 0.33333331346512 0.45847868919373 0
vt 0 0.46678292751312 0
vt 0.33333331346512 0.46678292751312 0
vt 0 0.47508716583252 0
vt 0.33333331346512 0.47508716583252 0
vt 0 0.48339152336121 0
vt 0.33333331346512 0.48339152336121 0
vt 0 0.4916957616806 0
vt 0.33333331346512 0.4916957616806 0
vt 0 0.5 0
vt 0.33333331346512 0.5 0
vt 0 0.52824091911316 0
vt 0.33333331346512 0.52824091911316 0
vt 0 0.53654515743256 0
vt 0.33333331346512 0.53654515743256 0
vt 0 0.5448494553566 0
vt 0.33333331346512 0.5448494553566 0
vt 0 0.55315375328064 0
vt 0.33333331346512 0.55315375328064 0
vt 0 0.56145799160004 0
vt 0.33333331346512 0.56145799160004 0
vt 0 0.56976228952408 0
vt 0.33333331346512 0.56976228952408 0
vt 0 0.57806652784348 0
vt 0.33333331346512 0.57806652784348 0
vt 0 0.58637082576752 0
vt 0.33333331346512 0.58637082576752 0
vt 0 0.59467512369156 0
vt 0.33333331346512 0.59467512369156 0
vt 0 0.9335657954216 0
vt 0.33333331346512 0.9335657954216 0
vt 0 0.94187009334564 0
vt 0.33333331346512 0.94187009334564 0
vt 0 0.95017433166504 0
vt 0.33333331346512 0.95017433166504 0
vt 0 0.95847862958908 0
vt 0.33333331346512 0.95847862958908 0
vt 0 0.96678292751312 0
vt 0.33333331346512 0.96678292751312 0
vt 0 0.97508716583252 0
vt 0.33333331346512 0.97508716583252 0
vt 0 0.98339146375656 0
vt 0.33333331346512 0.98339146375656 0
vt 0 0.99169570207596 0
vt 0.33333331346512 0.99169570207596 0
vt 0 1 0
vt 0.33333331346512 1 0
vt 0.66666662693024 0.02824091911316 0
vt 0.66666662693024 0 0
vt 0.66666662693024 0.03654515743256 0
vt 0.66666662693024 0.04484951496124 0
vt 0.66666662693024 0.05315375328064 0
vt 0.66666662693024 0.06145799160004 0
vt 0.66666662693024 0.06976234912872 0
vt 0.66666662693024 0.07806658744812 0
vt 0.66666662693024 0.08637082576752 0
vt 0.66666662693024 0.09467506408691 0
vt 0.66666662693024 0.43356585502625 0
vt 0.66666662693024 0.44187009334564 0
vt 0.66666662693024 0.45017433166504 0
vt 0.66666662693024 0.45847868919373 0
vt 0.66666662693024 0.46678292751312 0
vt 0.66666662693024 0.47508716583252 0
vt 0.66666662693024 0.48339152336121 0
vt 0.66666662693024 0.4916957616806 0
vt 0.66666662693024 0.5 0
vt 0.66666662693024 0.52824091911316 0
vt 0.66666662693024 0.53654515743256 0
vt 0.66666662693024 0.5448494553566 0
vt 0.66666662693024 0.55315375328064 0
vt 0.66666662693024 0.56145799160004 0
vt 0.66666662693024 0.56976228952408 0
vt 0.66666662693024 0.57806652784348 0
vt 0.66666662693024 0.58637082576752 0
vt 0.66666662693024 0.59467512369156 0
vt 0.66666662693024 0.9335657954216 0
vt 0.66666662693024 0.94187009334564 0
vt 0.66666662693024 0.95017433166504 0
vt 0.66666662693024 0.95847862958908 0
vt 0.66666662693024 0.96678292751312 0
vt 0.66666662693024 0.97508716583252 0
vt 0.66666662693024 0.98339146375656 0
vt 0.66666662693024 0.99169570207596 0
vt 0.66666662693024 1 0
vt 1 0.02824091911316 0
vt 1 0 0
vt 1 0.03654515743256 0
vt 1 0.04484951496124 0
vt 1 0.05315375328064 0
vt 1 0.06145799160004 0
vt 1 0.06976234912872 0
vt 1 0.07806658744812 0
vt 1 0.08637082576752 0
vt 1 0.09467506408691 0
vt 1 0.43356585502625 0
vt 1 0.44187009334564 0
vt 1 0.45017433166504 0
vt 1 0.45847868919373 0
vt 1 0.46678292751312 0
vt 1 0.47508716583252 0
vt 1 0.48339152336121 0
vt 1 0.4916957616806 0
vt 1 0.5 0
vt 1 0.52824091911316 0
vt 1 0.53654515743256 0
vt 1 0.5448494553566 0
vt 1 0.55315375328064 0
vt 1 0.56145799160004 0
vt 1 0.56976228952408 0
vt 1 0.57806652784348 0
vt 1 0.58637082576752 0
vt 1 0.59467512369156 0
vt 1 0.9335657954216 0
vt 1 0.94187009334564 0
vt 1 0.95017433166504 0
vt 1 0.95847862958908 0
vt 1 0.96678292751312 0
vt 1 0.97508716583252 0
vt 1 0.98339146375656 0
vt 1 0.99169570207596 0
vt 1 1 0
# 148 texture coordinates

o 三角门1
usemtl 金属
f 37/4/1 38/3/3 2/2/2 1/1/1
f 38/3/3 39/6/5 3/5/4 2/2/2
f 39/6/5 40/8/6 4/7/6 3/5/4
f 40/8/6 41/10/7 5/9/7 4/7/6
f 41/10/7 42/12/8 6/11/8 5/9/7
f 42/12/8 43/14/9 7/13/9 6/11/8
f 43/14/9 44/16/10 8/15/10 7/13/9
f 44/16/10 45/18/11 9/17/11 8/15/10
f 45/18/11 46/20/12 10/19/12 9/17/11
f 46/20/12 47/22/13 11/21/13 10/19/12
f 47/22/13 48/24/14 12/23/14 11/21/13
f 48/24/14 49/26/15 13/25/15 12/23/14
f 49/26/15 50/28/16 14/27/16 13/25/15
f 50/28/16 51/30/17 15/29/17 14/27/16
f 51/30/17 52/32/18 16/31/18 15/29/17
f 52/32/18 53/34/19 17/33/19 16/31/18
f 53/34/19 54/36/21 18/35/20 17/33/19
f 54/36/21 55/38/23 19/37/22 18/35/20
f 55/38/23 56/40/25 20/39/24 19/37/22
f 56/40/25 57/42/27 21/41/26 20/39/24
f 57/42/27 58/44/28 22/43/28 21/41/26
f 58/44/28 59/46/29 23/45/29 22/43/28
f 59/46/29 60/48/30 24/47/30 23/45/29
f 60/48/30 61/50/31 25/49/31 24/47/30
f 61/50/31 62/52/32 26/51/32 25/49/31
f 62/52/32 63/54/33 27/53/33 26/51/32
f 63/54/33 64/56/34 28/55/34 27/53/33
f 64/56/34 65/58/35 29/57/35 28/55/34
f 65/58/35 66/60/36 30/59/36 29/57/35
f 66/60/36 67/62/37 31/61/37 30/59/36
f 67/62/37 68/64/38 32/63/38 31/61/37
f 68/64/38 69/66/39 33/65/39 32/63/38
f 69/66/39 70/68/40 34/67/40 33/65/39
f 70/68/40 71/70/41 35/69/41 34/67/40
f 71/70/41 72/72/43 36/71/42 35/69/41
f 72/72/43 37/74/45 1/73/44 36/71/42
f 73/76/1 74/75/46 38/3/3 37/4/1
f 74/75/46 75/77/47 39/6/5 38/3/3
f 75/77/47 76/78/48 40/8/48 39/6/5
f 76/78/48 77/79/49 41/10/49 40/8/48
f 77/79/49 78/80/50 42/12/50 41/10/49
f 78/80/50 79/81/51 43/14/51 42/12/50
f 79/81/51 80/82/52 44/16/52 43/14/51
f 80/82/52 81/83/53 45/18/53 44/16/52
f 81/83/53 82/84/54 46/20/54 45/18/53
f 82/84/54 83/85/55 47/22/55 46/20/54
f 83/85/55 84/86/56 48/24/56 47/22/55
f 84/86/56 85/87/57 49/26/57 48/24/56
f 85/87/57 86/88/58 50/28/58 49/26/57
f 86/88/58 87/89/59 51/30/59 50/28/58
f 87/89/59 88/90/60 52/32/60 51/30/59
f 88/90/60 89/91/61 53/34/61 52/32/60
f 89/91/61 90/92/62 54/36/21 53/34/61
f 90/92/62 91/93/63 55/38/23 54/36/21
f 91/93/63 92/94/64 56/40/25 55/38/23
f 92/94/64 93/95/65 57/42/27 56/40/25
f 93/95/65 94/96/66 58/44/66 57/42/27
f 94/96/66 95/97/67 59/46/67 58/44/66
f 95/97/67 96/98/68 60/48/68 59/46/67
f 96/98/68 97/99/69 61/50/69 60/48/68
f 97/99/69 98/100/70 62/52/70 61/50/69
f 98/100/70 99/101/71 63/54/71 62/52/70
f 99/101/71 100/102/72 64/56/72 63/54/71
f 100/102/72 101/103/73 65/58/73 64/56/72
f 101/103/73 102/104/74 66/60/74 65/58/73
f 102/104/74 103/105/75 67/62/75 66/60/74
f 103/105/75 104/106/76 68/64/76 67/62/75
f 104/106/76 105/107/77 69/66/77 68/64/76
f 105/107/77 106/108/78 70/68/78 69/66/77
f 106/108/78 107/109/79 71/70/79 70/68/78
f 107/109/79 108/110/80 72/72/43 71/70/79
f 108/110/80 73/111/81 37/74/45 72/72/43
f 1/113/1 2/112/2 74/75/46 73/76/1
f 2/112/2 3/114/4 75/77/47 74/75/46
f 3/114/4 4/115/82 76/78/82 75/77/47
f 4/115/82 5/116/83 77/79/83 76/78/82
f 5/116/83 6/117/84 78/80/84 77/79/83
f 6/117/84 7/118/85 79/81/85 78/80/84
f 7/118/85 8/119/86 80/82/86 79/81/85
f 8/119/86 9/120/87 81/83/87 80/82/86
f 9/120/87 10/121/88 82/84/88 81/83/87
f 10/121/88 11/122/89 83/85/89 82/84/88
f 11/122/89 12/123/90 84/86/90 83/85/89
f 12/123/90 13/124/91 85/87/91 84/86/90
f 13/124/91 14/125/92 86/88/92 85/87/91
f 14/125/92 15/126/93 87/89/93 86/88/92
f 15/126/93 16/127/94 88/90/94 87/89/93
f 16/127/94 17/128/95 89/91/95 88/90/94
f 17/128/95 18/129/20 90/92/62 89/91/95
f 18/129/20 19/130/22 91/93/63 90/92/62
f 19/130/22 20/131/24 92/94/64 91/93/63
f 20/131/24 21/132/26 93/95/65 92/94/64
f 21/132/26 22/133/96 94/96/96 93/95/65
f 22/133/96 23/134/97 95/97/97 94/96/96
f 23/134/97 24/135/98 96/98/98 95/97/97
f 24/135/98 25/136/99 97/99/99 96/98/98
f 25/136/99 26/137/100 98/100/100 97/99/99
f 26/137/100 27/138/101 99/101/101 98/100/100
f 27/138/101 28/139/102 100/102/102 99/101/101
f 28/139/102 29/140/103 101/103/103 100/102/102
f 29/140/103 30/141/104 102/104/104 101/103/103
f 30/141/104 31/142/105 103/105/105 102/104/104
f 31/142/105 32/143/106 104/106/106 103/105/105
f 32/143/106 33/144/107 105/107/107 104/106/106
f 33/144/107 34/145/108 106/108/108 105/107/107
f 34/145/108 35/146/109 107/109/109 106/108/108
f 35/146/109 36/147/42 108/110/80 107/109/109
f 36/147/42 1/148/44 73/111/81 108/110/80

