# WaveFront *.obj file (generated by CINEMA 4D)

mtllib ./TriDoor.mtl

v 164.54483032226562 -95 -10
v 173.205078125 -100 -0
v 173.205078125 -100 0
v 164.54483032226562 -95 10
v 155.88456726074219 -90 -0
v 155.88456726074219 -90 -0
v 0 190 -10
v 0 200 0.00000000000001
v 0 200 0.00000000000001
v 0 190 10
v 0 180 0.00000000000001
v 0 180 0
v -164.54483032226562 -95 -10
v -173.205078125 -100 -0
v -173.205078125 -100 -0
v -164.54483032226562 -95 10
v -155.88456726074219 -90 -0
v -155.88456726074219 -90 -0.00000000000001
# 18 vertices

vn 0 0 0
vn 0.77459669113159 0.44721361994743 -0.44721353054047
vn 0.8428583741188 0.48662450909615 -0.22975288331509
vn 0.8428583741188 0.48662450909615 0.22975282371044
vn 0.77459675073624 0.44721364974976 0.44721341133118
vn -0.77459651231766 -0.44721347093582 0.4472139775753
vn -0.84285831451416 -0.48662447929382 0.22975313663483
vn -0.84285825490952 -0.48662447929382 -0.22975316643715
vn -0.77459645271301 -0.44721350073814 -0.44721406698227
vn -0.77459681034088 0.44721367955208 -0.44721329212189
vn -0.8428583741188 0.48662447929382 -0.22975273430347
vn -0.8428583741188 0.4866244494915 0.22975292801857
vn -0.77459663152695 0.44721359014511 0.44721359014511
vn 0.77459663152695 -0.44721359014511 0.4472137093544
vn 0.8428583741188 -0.4866244494915 0.22975297272205
vn 0.8428583741188 -0.4866244494915 -0.22975304722786
vn 0.7745965719223 -0.44721353054047 -0.44721382856369
vn 0 -0.89442718029022 -0.44721359014511
vn 0 -0.97324901819229 -0.22975292801857
vn -0 -0.97324901819229 0.22975292801857
vn -0 -0.89442718029022 0.44721359014511
vn 0 0.89442718029022 0.44721359014511
vn 0 0.97324901819229 0.22975292801857
vn 0 0.97324901819229 -0.22975292801857
vn 0 0.89442718029022 -0.44721359014511
# 25 normals

vt 0 0 0
vt 0.33333331346512 0 0
vt 0 0.25 0
vt 0.33333331346512 0.25 0
vt 0 0.5 0
vt 0.33333331346512 0.5 0
vt 0 0.75 0
vt 0.33333331346512 0.75 0
vt 0 1 0
vt 0.33333331346512 1 0
vt 0.66666662693024 0 0
vt 0.66666662693024 0.25 0
vt 0.66666662693024 0.5 0
vt 0.66666662693024 0.75 0
vt 0.66666662693024 1 0
vt 1 0 0
vt 1 0.25 0
vt 1 0.5 0
vt 1 0.75 0
vt 1 1 0
# 20 texture coordinates

o 管道
usemtl default
f 7/2/1 1/1/1 1/1/1
f 7/2/2 8/4/3 2/3/3 1/1/2
f 8/4/3 9/4/4 3/3/4 2/3/3
f 9/4/4 10/6/5 4/5/5 3/3/4
f 10/6/1 4/5/1 4/5/1
f 10/6/6 11/8/7 5/7/7 4/5/6
f 11/8/7 12/8/8 6/7/8 5/7/7
f 12/8/8 7/10/9 1/9/9 6/7/8
f 13/11/1 7/2/1 7/2/1
f 13/11/10 14/12/11 8/4/11 7/2/10
f 14/12/11 15/12/12 9/4/12 8/4/11
f 15/12/12 16/13/13 10/6/13 9/4/12
f 16/13/1 10/6/1 10/6/1
f 16/13/14 17/14/15 11/8/15 10/6/14
f 17/14/15 18/14/16 12/8/16 11/8/15
f 18/14/16 13/15/17 7/10/17 12/8/16
f 1/16/1 13/11/1 13/11/1
f 1/16/18 2/17/19 14/12/19 13/11/18
f 2/17/19 3/17/20 15/12/20 14/12/19
f 3/17/20 4/18/21 16/13/21 15/12/20
f 4/18/1 16/13/1 16/13/1
f 4/18/22 5/19/23 17/14/23 16/13/22
f 5/19/23 6/19/24 18/14/24 17/14/23
f 6/19/24 1/20/25 13/15/25 18/14/24

